<svg xmlns="http://www.w3.org/2000/svg"  viewBox="0 0 24 24" width="24px" height="24px"><path d="M 6 2 C 5.4777778 2 4.9453899 2.1913289 4.5683594 2.5683594 C 4.1913289 2.9453899 4 3.4777778 4 4 L 4 20 C 4 20.522222 4.1913289 21.05461 4.5683594 21.431641 C 4.9453899 21.808671 5.4777778 22 6 22 L 18 22 C 18.522222 22 19.05461 21.808671 19.431641 21.431641 C 19.808671 21.05461 20 20.522222 20 20 L 20 7.9863281 L 14.013672 2 L 6 2 z M 6 4 L 13 4 L 13 9 L 18 9 L 18 20 L 6 20 L 6 4 z M 8 12 L 8 14 L 16 14 L 16 12 L 8 12 z M 8 16 L 8 18 L 16 18 L 16 16 L 8 16 z"/></svg>